<?xml version="1.0" encoding="UTF-8"?>
<svg viewBox="0 0 508.75 481.25" xmlns="http://www.w3.org/2000/svg">
 <defs>
  <radialGradient id="a" cx="-23849" cy="3872.5" r="23.36" gradientTransform="matrix(-3.1029 -.21421 .058461 -.84683 -97702 2046.6)" gradientUnits="userSpaceOnUse">
   <stop stop-color="#fff" offset="0"/>
   <stop stop-color="#fff" stop-opacity="0" offset="1"/>
  </radialGradient>
 </defs>
 <g transform="matrix(3.3142 0 0 3.3142 78108 -12538)" stroke="#fff">
  <path d="m-23474 3916.9c-39.682-43.812-9.2734-83.202-51.619-64.17-2.8652 0.67407-2.166-2.1067-1.6562-2.8064 3.3086-3.3547 4.7773-4.5337 11.025-7.4468-22.014-6.6606-12.611-32.786 7.6016-32.35l45.256 2.6516 16.617-7.2478c14.93 12.22 9.7871 37.43-1.0625 43.31-4.5156-1.1995-8.6387-1.9551-16.793-7.2478-8.7207 0.82495-28.721 0.52197-26.164 2.4748 13.166 4.5295 8.7441 48.994 23.69 70.711l-6.8945 2.1213z"/>
  <path d="m-23474 3916.9c-39.682-43.812-9.2734-83.202-51.619-64.17-2.8652 0.67407-2.166-2.1067-1.6562-2.8064 3.3086-3.3547 4.7773-4.5337 11.025-7.4468-22.014-6.6606-12.611-32.786 7.6016-32.35l45.256 2.6516 16.617-7.2478c4.6719 8.2248 5.7578 34.111-1.0625 43.31-4.5156-1.1995-8.6387-1.9551-16.793-7.2478-8.7207 0.82495-28.721 0.52197-26.164 2.4748 13.166 4.5295 8.7441 48.994 23.69 70.711l-6.8945 2.1213z" fill="#1a1a1a"/>
  <path d="m-23464 3841.8c-5.6777-1.2856-7.6113-22.034-0.35352-29.168-14.166-0.77344-28.291-1.5425-43.486-2.4307-1.8281 8.4319-4.2344 17.074-1.9453 30.538 7.7363 0.46265 16.381 0.47119 19.623 3.1819-0.875-1.7173 17.441-1.4143 26.162-2.1213z" fill="#868686"/>
  <path d="m-23464 3841.8c-5.6777-1.2856-7.6113-22.034-0.35352-29.168-14.166-0.77344-28.291-1.5425-43.486-2.4307-1.8281 8.4319-4.2344 17.074-1.9453 30.538 7.7363 0.46265 16.381 0.47119 19.623 3.1819-0.875-1.7173 17.441-1.4143 26.162-2.1213z" fill="url(#a)"/>
  <path d="m-23475 3901.1c-11.967-31.19-3.2871-60.764-34.92-60.207 28.943-2.2036 26.478 12.924 30.984 32.879 2.0312 8.9661 3.1699 18.744 5.8301 27.332h-1.8945v-0.003662z" fill="#a7aaaf"/>
  <path d="m-23475 3901.1c-11.967-31.19-3.2871-60.764-34.92-60.207 20.193 6.0464 19.728 16.174 24.234 36.129 2.0312 8.9661 2.6699 24.744 12.58 24.082h-1.8945v-0.003662z" fill="#e6eaed"/>
  <path d="m-23482 3867.9l1.625 8.3125c1.3594 1.4927 1.4902 0.61548 1.5625-0.375l-1.5-8.1875c-0.4668-0.9209-1.3867-1.0127-1.6875 0.25z" fill="#808080"/>
  <rect x="-23481" y="3873.9" width="2.6516" height="2.6516" rx="1.3258" ry="1.3258" fill="#333436"/>
 </g>
</svg>
